HIERARCHY
ROOT Hips
{
  OFFSET 232.974 93.818 952.219
  CHANNELS 6 Xposition Yposition Zposition Zrotation Xrotation Yrotation
  JOINT Spine
  {
    OFFSET 0 8 0
    CHANNELS 6 Xposition Yposition Zposition Zrotation Xrotation Yrotation
    JOINT Spine1
    {
      OFFSET 0 8 0
      CHANNELS 6 Xposition Yposition Zposition Zrotation Xrotation Yrotation
      JOINT Spine2
      {
        OFFSET 0 8 0
        CHANNELS 6 Xposition Yposition Zposition Zrotation Xrotation Yrotation
        JOINT Spine3
        {
          OFFSET 0 8 0
          CHANNELS 6 Xposition Yposition Zposition Zrotation Xrotation Yrotation
          JOINT Neck
          {
            OFFSET 0 17 0
            CHANNELS 6 Xposition Yposition Zposition Zrotation Xrotation Yrotation
            JOINT Head
            {
              OFFSET 0 10.8 0
              CHANNELS 6 Xposition Yposition Zposition Zrotation Xrotation Yrotation
              End Site
              {
                OFFSET 0 20.25 0
              }
            }
          }
          JOINT LeftShoulder
          {
            OFFSET 5 17 0
            CHANNELS 6 Xposition Yposition Zposition Zrotation Xrotation Yrotation
            JOINT LeftShoulder2
            {
              OFFSET 6.45 0 0
              CHANNELS 6 Xposition Yposition Zposition Zrotation Xrotation Yrotation
              JOINT LeftArm
              {
                OFFSET 6.45 0 0
                CHANNELS 6 Xposition Yposition Zposition Zrotation Xrotation Yrotation
                JOINT LeftForeArm
                {
                  OFFSET 0 -32.4 -2
                  CHANNELS 6 Xposition Yposition Zposition Zrotation Xrotation Yrotation
                  JOINT LeftHand
                  {
                    OFFSET 0 -25.65 2
                    CHANNELS 6 Xposition Yposition Zposition Zrotation Xrotation Yrotation
                    JOINT LeftHandThumb1
                    {
                      OFFSET -0.5 -1.5 2.65
                      CHANNELS 6 Xposition Yposition Zposition Zrotation Xrotation Yrotation
                      JOINT LeftHandThumb2
                      {
                        OFFSET 0 -3.8 3.7
                        CHANNELS 6 Xposition Yposition Zposition Zrotation Xrotation Yrotation
                        JOINT LeftHandThumb3
                        {
                          OFFSET 0 -3 2.7
                          CHANNELS 6 Xposition Yposition Zposition Zrotation Xrotation Yrotation
                          End Site
                          {
                            OFFSET 0 -2.3 1.8
                          }
                        }
                      }
                    }
                    JOINT LeftHandIndex
                    {
                      OFFSET 0 -1.9 1.6
                      CHANNELS 6 Xposition Yposition Zposition Zrotation Xrotation Yrotation
                      JOINT LeftHandIndex1
                      {
                        OFFSET 0 -8.3 1.9
                        CHANNELS 6 Xposition Yposition Zposition Zrotation Xrotation Yrotation
                        JOINT LeftHandIndex2
                        {
                          OFFSET 0 -4.5 0
                          CHANNELS 6 Xposition Yposition Zposition Zrotation Xrotation Yrotation
                          JOINT LeftHandIndex3
                          {
                            OFFSET 0 -3.4 0
                            CHANNELS 6 Xposition Yposition Zposition Zrotation Xrotation Yrotation
                            End Site
                            {
                              OFFSET 0 -2.6 0
                            }
                          }
                        }
                      }
                    }
                    JOINT LeftHandMiddle
                    {
                      OFFSET -0.25 -2.2 0.4
                      CHANNELS 6 Xposition Yposition Zposition Zrotation Xrotation Yrotation
                      JOINT LeftHandMiddle1
                      {
                        OFFSET 0 -8.3 1
                        CHANNELS 6 Xposition Yposition Zposition Zrotation Xrotation Yrotation
                        JOINT LeftHandMiddle2
                        {
                          OFFSET 0 -4.65 0
                          CHANNELS 6 Xposition Yposition Zposition Zrotation Xrotation Yrotation
                          JOINT LeftHandMiddle3
                          {
                            OFFSET 0 -3.3 0
                            CHANNELS 6 Xposition Yposition Zposition Zrotation Xrotation Yrotation
                            End Site
                            {
                              OFFSET 0 -2.7 0
                            }
                          }
                        }
                      }
                    }
                    JOINT LeftHandRing
                    {
                      OFFSET -0.5 -2.15 -0.8
                      CHANNELS 6 Xposition Yposition Zposition Zrotation Xrotation Yrotation
                      JOINT LeftHandRing1
                      {
                        OFFSET 0 -7.75 -0.2
                        CHANNELS 6 Xposition Yposition Zposition Zrotation Xrotation Yrotation
                        JOINT LeftHandRing2
                        {
                          OFFSET 0 -3.8 0
                          CHANNELS 6 Xposition Yposition Zposition Zrotation Xrotation Yrotation
                          JOINT LeftHandRing3
                          {
                            OFFSET 0 -3.4 0
                            CHANNELS 6 Xposition Yposition Zposition Zrotation Xrotation Yrotation
                            End Site
                            {
                              OFFSET 0 -2.6 0
                            }
                          }
                        }
                      }
                    }
                    JOINT LeftHandPinky
                    {
                      OFFSET -0.75 -1.75 -1.85
                      CHANNELS 6 Xposition Yposition Zposition Zrotation Xrotation Yrotation
                      JOINT LeftHandPinky1
                      {
                        OFFSET 0 -7.15 -1
                        CHANNELS 6 Xposition Yposition Zposition Zrotation Xrotation Yrotation
                        JOINT LeftHandPinky2
                        {
                          OFFSET 0 -3 0
                          CHANNELS 6 Xposition Yposition Zposition Zrotation Xrotation Yrotation
                          JOINT LeftHandPinky3
                          {
                            OFFSET 0 -2.35 0
                            CHANNELS 6 Xposition Yposition Zposition Zrotation Xrotation Yrotation
                            End Site
                            {
                              OFFSET 0 -2.1 0
                            }
                          }
                        }
                      }
                    }
                  }
                }
              }
            }
          }
          JOINT RightShoulder
          {
            OFFSET -5 17 0
            CHANNELS 6 Xposition Yposition Zposition Zrotation Xrotation Yrotation
            JOINT RightShoulder2
            {
              OFFSET -6.45 0 0
              CHANNELS 6 Xposition Yposition Zposition Zrotation Xrotation Yrotation
              JOINT RightArm
              {
                OFFSET -6.45 0 0
                CHANNELS 6 Xposition Yposition Zposition Zrotation Xrotation Yrotation
                JOINT RightForeArm
                {
                  OFFSET 0 -32.4 -2
                  CHANNELS 6 Xposition Yposition Zposition Zrotation Xrotation Yrotation
                  JOINT RightHand
                  {
                    OFFSET 0 -25.65 2
                    CHANNELS 6 Xposition Yposition Zposition Zrotation Xrotation Yrotation
                    JOINT RightHandThumb1
                    {
                      OFFSET 0.5 -1.5 2.65
                      CHANNELS 6 Xposition Yposition Zposition Zrotation Xrotation Yrotation
                      JOINT RightHandThumb2
                      {
                        OFFSET 0 -3.8 3.7
                        CHANNELS 6 Xposition Yposition Zposition Zrotation Xrotation Yrotation
                        JOINT RightHandThumb3
                        {
                          OFFSET 0 -3 2.7
                          CHANNELS 6 Xposition Yposition Zposition Zrotation Xrotation Yrotation
                          End Site
                          {
                            OFFSET 0 -2.3 1.8
                          }
                        }
                      }
                    }
                    JOINT RightHandIndex
                    {
                      OFFSET 0 -1.9 1.6
                      CHANNELS 6 Xposition Yposition Zposition Zrotation Xrotation Yrotation
                      JOINT RightHandIndex1
                      {
                        OFFSET 0 -8.3 1.9
                        CHANNELS 6 Xposition Yposition Zposition Zrotation Xrotation Yrotation
                        JOINT RightHandIndex2
                        {
                          OFFSET 0 -4.5 0
                          CHANNELS 6 Xposition Yposition Zposition Zrotation Xrotation Yrotation
                          JOINT RightHandIndex3
                          {
                            OFFSET 0 -3.4 0
                            CHANNELS 6 Xposition Yposition Zposition Zrotation Xrotation Yrotation
                            End Site
                            {
                              OFFSET 0 -2.6 0
                            }
                          }
                        }
                      }
                    }
                    JOINT RightHandMiddle
                    {
                      OFFSET 0.25 -2.2 0.4
                      CHANNELS 6 Xposition Yposition Zposition Zrotation Xrotation Yrotation
                      JOINT RightHandMiddle1
                      {
                        OFFSET 0 -8.3 1
                        CHANNELS 6 Xposition Yposition Zposition Zrotation Xrotation Yrotation
                        JOINT RightHandMiddle2
                        {
                          OFFSET 0 -4.65 0
                          CHANNELS 6 Xposition Yposition Zposition Zrotation Xrotation Yrotation
                          JOINT RightHandMiddle3
                          {
                            OFFSET 0 -3.3 0
                            CHANNELS 6 Xposition Yposition Zposition Zrotation Xrotation Yrotation
                            End Site
                            {
                              OFFSET 0 -2.7 0
                            }
                          }
                        }
                      }
                    }
                    JOINT RightHandRing
                    {
                      OFFSET 0.5 -2.15 -0.8
                      CHANNELS 6 Xposition Yposition Zposition Zrotation Xrotation Yrotation
                      JOINT RightHandRing1
                      {
                        OFFSET 0 -7.75 -0.2
                        CHANNELS 6 Xposition Yposition Zposition Zrotation Xrotation Yrotation
                        JOINT RightHandRing2
                        {
                          OFFSET 0 -3.8 0
                          CHANNELS 6 Xposition Yposition Zposition Zrotation Xrotation Yrotation
                          JOINT RightHandRing3
                          {
                            OFFSET 0 -3.4 0
                            CHANNELS 6 Xposition Yposition Zposition Zrotation Xrotation Yrotation
                            End Site
                            {
                              OFFSET 0 -2.6 0
                            }
                          }
                        }
                      }
                    }
                    JOINT RightHandPinky
                    {
                      OFFSET 0.75 -1.75 -1.85
                      CHANNELS 6 Xposition Yposition Zposition Zrotation Xrotation Yrotation
                      JOINT RightHandPinky1
                      {
                        OFFSET 0 -7.15 -1
                        CHANNELS 6 Xposition Yposition Zposition Zrotation Xrotation Yrotation
                        JOINT RightHandPinky2
                        {
                          OFFSET 0 -3 0
                          CHANNELS 6 Xposition Yposition Zposition Zrotation Xrotation Yrotation
                          JOINT RightHandPinky3
                          {
                            OFFSET 0 -2.35 0
                            CHANNELS 6 Xposition Yposition Zposition Zrotation Xrotation Yrotation
                            End Site
                            {
                              OFFSET 0 -2.1 0
                            }
                          }
                        }
                      }
                    }
                  }
                }
              }
            }
          }
        }
      }
    }
  }
  JOINT LeftUpLeg
  {
    OFFSET 8 0 0
    CHANNELS 6 Xposition Yposition Zposition Zrotation Xrotation Yrotation
    JOINT LeftLeg
    {
      OFFSET 0 -45 -1
      CHANNELS 6 Xposition Yposition Zposition Zrotation Xrotation Yrotation
      JOINT LeftFoot
      {
        OFFSET 0 -41 -2
        CHANNELS 6 Xposition Yposition Zposition Zrotation Xrotation Yrotation
        JOINT LeftToeBase
        {
          OFFSET 0 -7.5 12.5
          CHANNELS 6 Xposition Yposition Zposition Zrotation Xrotation Yrotation
          JOINT LeftFootToe
          {
            OFFSET 0 0 4
            CHANNELS 6 Xposition Yposition Zposition Zrotation Xrotation Yrotation
            End Site
            {
              OFFSET 0 0 0
            }
          }
        }
      }
    }
  }
  JOINT RightUpLeg
  {
    OFFSET -8 0 0
    CHANNELS 6 Xposition Yposition Zposition Zrotation Xrotation Yrotation
    JOINT RightLeg
    {
      OFFSET 0 -45 -1
      CHANNELS 6 Xposition Yposition Zposition Zrotation Xrotation Yrotation
      JOINT RightFoot
      {
        OFFSET 0 -41 -2
        CHANNELS 6 Xposition Yposition Zposition Zrotation Xrotation Yrotation
        JOINT RightToeBase
        {
          OFFSET 0 -7.5 12.5
          CHANNELS 6 Xposition Yposition Zposition Zrotation Xrotation Yrotation
          JOINT RightFootToe
          {
            OFFSET 0 0 4
            CHANNELS 6 Xposition Yposition Zposition Zrotation Xrotation Yrotation
            End Site
            {
              OFFSET 0 0 0
            }
          }
        }
      }
    }
  }
}
MOTION
Frames:	3
Frame Time:	0.0111111
238.356 91.0077 989.418 -1.93266 1.05417 31.8201 1.13687e-13 8 -1.13687e-13 -2.49854 17.0295 -5.23707 2.84217e-14 8 1.13687e-13 -0.751116 5.23755 -2.08847 -2.84217e-14 8 0 -0.399292 2.61699 -1.05241 2.84217e-14 8 0 -0.398837 2.61373 -1.05113 2.84217e-14 17 0 -2.31797 -4.07306 11.9428 1.13687e-13 10.8 0 -4.03725 -10.1834 28.04 5 17 0 -3.48485 1.02114 1.49035 6.45 0 0 1.14401 0.0212429 0.234002 6.45 -1.13687e-13 0 5.98089 -30.2355 15.8993 0 -32.4 -2 -14.6352 -52.5703 40.1641 -1.13687e-13 -25.65 2 -15.1366 -8.54185 7.66049 -0.5 -1.5 2.65 -19.7964 0.040132 -15.3412 -1.42109e-14 -3.8 3.7 -0.736933 15.9378 -0.0211699 5.68434e-14 -3 2.7 -0.196421 58.8124 0.154194 5.68434e-14 -1.9 1.6 -1.76556e-31 -3.18055e-15 -3.18055e-15 -5.68434e-14 -8.3 1.9 -22.0238 -2.15088 -0.322703 7.10543e-15 -4.5 0 -66.8425 0.299889 -0.0460037 1.13687e-13 -3.4 0 -49.2223 0.242641 0.20921 -0.25 -2.2 0.4 -1.76556e-31 -3.18055e-15 -3.18055e-15 0 -8.3 1 -50.4872 -5.37928 -0.949479 5.68434e-14 -4.65 0 -22.8166 0.194723 -0.112567 0 -3.3 0 -17.5834 0.139132 -0.0296589 -0.5 -2.15 -0.8 -1.76556e-31 -3.18055e-15 -3.18055e-15 0 -7.75 -0.2 -60.9836 8.01835 8.16159 0 -3.8 8.52651e-14 -16.6502 0.0185404 -0.00382084 -1.13687e-13 -3.4 2.84217e-14 -13.6419 0.0127291 0.00284948 -0.75 -1.75 -1.85 -1.76556e-31 -3.18055e-15 -3.18055e-15 -5.68434e-14 -7.15 -1 -69.051 9.44865 12.7764 0 -3 0 -5.94961 -0.0942353 0.0299669 1.13687e-13 -2.35 -2.84217e-14 -5.19549 -0.0826793 0.0194467 -5 17 -1.13687e-13 -4.04205 1.19592 -6.30705 -6.45 0 1.13687e-13 -3.25241 -0.691792 -0.395469 -6.45 0 0 -14.171 -9.97722 23.6458 0 -32.4 -2 15.9761 -45.3779 25.8146 0 -25.65 2 -38.6605 -26.2515 29.1806 0.5 -1.5 2.65 20.1815 -35.9085 6.21268 0 -3.8 3.7 0.312111 23.7303 -0.144422 0 -3 2.7 0.0134642 27.419 -0.00478874 1.13687e-13 -1.9 1.6 3.18055e-15 -3.18055e-15 -1.59028e-15 -1.13687e-13 -8.3 1.9 31.4356 16.9696 -5.23717 0 -4.5 -2.84217e-14 52.241 -0.00430658 0.0276537 0 -3.4 1.42109e-14 36.085 0.00657581 0.0115831 0.25 -2.2 0.4 3.18055e-15 -3.18055e-15 -1.59028e-15 0 -8.3 1 36.136 15.8398 -6.52287 0 -4.65 -1.42109e-14 88.5076 0.00178806 -0.00410941 5.68434e-14 -3.3 1.42109e-14 85.0667 0.0231842 0.00230213 0.5 -2.15 -0.8 3.18055e-15 -3.18055e-15 -1.59028e-15 1.13687e-13 -7.75 -0.2 38.4245 14.927 -7.69133 0 -3.8 0 83.7291 -0.00590134 0.00806484 0 -3.4 0 73.0735 0.0152733 0.00942501 0.75 -1.75 -1.85 3.18055e-15 -3.18055e-15 -1.59028e-15 -1.13687e-13 -7.15 -1 63.4711 12.8072 -13.2538 0 -3 -2.84217e-14 62.8118 0.000264031 0.0311836 0 -2.35 4.26326e-14 44.6212 0.0211939 0.020345 8 -1.42109e-14 -1.13687e-13 11.8516 -20.1283 35.5404 1.13687e-13 -45 -1 -0.303795 12.1825 -6.57774 1.13687e-13 -41 -2 0.856496 7.01212 -10.512 -1.13687e-13 -7.5 12.5 -4.41739e-23 -7.95767e-07 -3.18055e-15 0 0 4 2.09767 -2.95039 12.6243 -8 -2.84217e-14 -1.13687e-13 -14.9084 -4.14991 -18.6553 0 -45 -1 -0.0159188 30.1559 0.082824 2.84217e-14 -41 -2 8.2964 0.866239 13.4651 2.84217e-14 -7.5 12.5 -2.14891e-16 -23.3854 3.4652e-15 0 0 4 -5.65574 23.5811 18.4539 
238.731 90.9767 989.372 -1.83517 1.33905 31.8234 0 8 -1.13687e-13 -2.76911 17.2511 -5.26376 0 8 1.13687e-13 -0.712054 5.33543 -2.09955 8.52651e-14 8 0 -0.380344 2.66616 -1.05669 2.84217e-14 8 0 -0.379891 2.66276 -1.0563 0 17 0 -2.34357 -4.17277 11.8958 1.13687e-13 10.8 0 -4.06951 -10.4222 27.9279 5 17 -1.13687e-13 -3.33346 1.01374 1.59088 6.45 0 0 1.13349 0.0319887 0.201984 6.45 0 -1.13687e-13 6.55267 -30.935 15.7657 0 -32.4 -2 -14.9059 -51.6583 40.1005 1.13687e-13 -25.65 2 -15.6077 -8.54284 8.04694 -0.5 -1.5 2.65 -19.8065 0.762631 -15.3924 -2.84217e-14 -3.8 3.7 -0.76349 15.9376 -0.0299332 4.26326e-14 -3 2.7 -0.220939 58.9118 0.18376 0 -1.9 1.6 -3.18055e-15 0 -0 -5.68434e-14 -8.3 1.9 -20.1579 -0.969321 -0.114008 -1.42109e-14 -4.5 0 -64.3693 0.271197 -0.0592013 -1.13687e-13 -3.4 5.68434e-14 -46.672 0.228201 0.159957 -0.25 -2.2 0.4 -3.18055e-15 0 -0 -5.68434e-14 -8.3 1 -50.4518 -4.61459 -0.595002 -5.68434e-14 -4.65 5.68434e-14 -20.6476 0.140387 -0.0888054 0 -3.3 0 -16.2169 0.102999 -0.02855 -0.5 -2.15 -0.8 -3.18055e-15 0 -0 0 -7.75 -0.2 -61.2808 7.86836 8.11944 -1.13687e-13 -3.8 -5.68434e-14 -16.4602 0.0034133 -0.000973593 0 -3.4 8.52651e-14 -13.5156 0.00228732 0.00252203 -0.75 -1.75 -1.85 -3.18055e-15 0 -0 0 -7.15 -1 -68.7394 9.58043 12.7558 -1.13687e-13 -3 -5.68434e-14 -8.04942 -0.10374 0.0263792 1.13687e-13 -2.35 -2.84217e-14 -6.9145 -0.0876318 0.0134235 -5 17 -1.13687e-13 -4.13757 1.09776 -6.54606 -6.45 -1.13687e-13 0 -3.21558 -0.708956 -0.294353 -6.45 0 0 -13.9337 -10.7114 23.9139 2.27374e-13 -32.4 -2 15.6255 -44.7645 25.2664 0 -25.65 2 -38.2567 -26.3655 29.5617 0.5 -1.5 2.65 20.036 -35.994 6.15425 0 -3.8 3.7 0.311746 23.5689 -0.144532 0 -3 2.7 0.0156217 27.8223 -0.0090307 0 -1.9 1.6 0 0 -3.18055e-15 0 -8.3 1.9 32.1784 17.1419 -5.42346 -1.13687e-13 -4.5 -4.26326e-14 51.6714 -0.00512197 0.023766 0 -3.4 1.42109e-14 35.6814 0.005708 0.0110955 0.25 -2.2 0.4 0 0 -3.18055e-15 0 -8.3 1 36.9612 15.909 -6.71744 0 -4.65 0 88.2893 0.00185136 -0.00287012 5.68434e-14 -3.3 -1.42109e-14 84.408 0.018442 0.00250675 0.5 -2.15 -0.8 0 0 -3.18055e-15 -1.13687e-13 -7.75 -0.2 38.912 14.8767 -7.79152 0 -3.8 1.42109e-14 83.3212 -0.00586467 0.00793217 -5.68434e-14 -3.4 -1.42109e-14 72.2447 0.0136869 0.0097877 0.75 -1.75 -1.85 0 0 -3.18055e-15 -1.13687e-13 -7.15 -1 64.764 12.3296 -13.3603 0 -3 -1.42109e-14 61.673 -0.00123012 0.0202961 0 -2.35 -1.42109e-14 43.5689 0.0117723 0.020623 8 1.42109e-14 0 11.3708 -20.0963 35.6166 0 -45 -1 -0.305718 11.9655 -6.54185 1.13687e-13 -41 -2 0.933067 7.43259 -10.5619 1.13687e-13 -7.5 12.5 -0 -7.9496e-07 -0 0 3.55271e-15 4 2.02383 -3.36486 12.6312 -8 2.84217e-14 -1.13687e-13 -15.4041 -4.29114 -18.7601 0 -45 -1 -0.0238454 30.2643 0.112513 0 -41 -2 8.55361 1.00479 13.3949 -2.84217e-14 -7.5 12.5 1.13694e-15 -23.2064 6.92109e-15 -2.84217e-14 -1.77636e-15 4 -6.00555 23.4162 18.4417 
239.081 90.9653 989.338 -1.75225 1.63486 31.8615 0 8 -1.13687e-13 -3.01815 17.4479 -5.29898 0 8 0 -0.664402 5.40906 -2.10862 0 8 1.13687e-13 -0.356966 2.70324 -1.06171 0 8 1.13687e-13 -0.356539 2.6997 -1.06034 -2.84217e-14 17 0 -2.37093 -4.25458 11.858 5.68434e-14 10.8 0 -4.11283 -10.6181 27.8365 5 17 0 -3.18565 1.03665 1.69255 6.45 0 0 1.12663 0.041092 0.172613 6.45 0 0 7.11565 -31.5979 15.516 -5.68434e-14 -32.4 -2 -15.0379 -50.7071 40.0085 0 -25.65 2 -15.7883 -8.51753 8.55941 -0.5 -1.5 2.65 -19.6677 0.834252 -15.533 -2.84217e-14 -3.8 3.7 -0.773691 16.2628 -0.0193959 4.26326e-14 -3 2.7 -0.229349 59.0454 0.194331 5.68434e-14 -1.9 1.6 3.18055e-15 -3.18055e-15 -7.95139e-16 -5.68434e-14 -8.3 1.9 -18.4179 0.066791 0.0492596 2.84217e-14 -4.5 0 -61.9799 0.229138 -0.0682041 -1.13687e-13 -3.4 0 -44.3025 0.19945 0.109414 -0.25 -2.2 0.4 3.18055e-15 -3.18055e-15 -7.95139e-16 0 -8.3 1 -50.6736 -3.99175 -0.285037 5.68434e-14 -4.65 0 -18.9806 0.0925586 -0.0628048 1.13687e-13 -3.3 -5.68434e-14 -15.1577 0.0693311 -0.0229373 -0.5 -2.15 -0.8 3.18055e-15 -3.18055e-15 -7.95139e-16 5.68434e-14 -7.75 -0.2 -61.5911 7.6571 8.05384 2.27374e-13 -3.8 5.68434e-14 -16.7205 -0.0127955 0.0022267 1.13687e-13 -3.4 5.68434e-14 -13.6884 -0.00870745 0.00230145 -0.75 -1.75 -1.85 3.18055e-15 -3.18055e-15 -7.95139e-16 0 -7.15 -1 -68.4814 9.64027 12.7106 0 -3 5.68434e-14 -10.4031 -0.109855 0.0227447 -1.13687e-13 -2.35 -2.84217e-14 -8.80255 -0.0882323 0.00664136 -5 17 0 -4.21583 1.05552 -6.77149 -6.45 0 0 -3.18418 -0.735758 -0.200093 -6.45 0 0 -13.7087 -11.4376 24.1874 0 -32.4 -2 15.2497 -44.0804 24.693 0 -25.65 2 -37.9044 -26.5015 29.8281 0.5 -1.5 2.65 19.9224 -36.0272 6.1617 0 -3.8 3.7 0.311502 23.4519 -0.144689 1.13687e-13 -3 2.7 0.0175824 28.1223 -0.0127732 0 -1.9 1.6 -3.18055e-15 3.18055e-15 1.59028e-15 -1.13687e-13 -8.3 1.9 32.7431 17.3002 -5.57512 0 -4.5 1.42109e-14 50.9111 -0.00590318 0.0146305 0 -3.4 0 35.1409 0.00479538 0.0106246 0.25 -2.2 0.4 -3.18055e-15 3.18055e-15 1.59028e-15 0 -8.3 1 37.6319 15.9741 -6.88099 0 -4.65 1.42109e-14 88.0609 0.00141739 -0.00160218 -5.68434e-14 -3.3 -1.42109e-14 83.7313 0.0131778 0.00272896 0.5 -2.15 -0.8 -3.18055e-15 3.18055e-15 1.59028e-15 -1.13687e-13 -7.75 -0.2 39.2972 14.8489 -7.87511 0 -3.8 2.84217e-14 82.8872 -0.00585347 0.00779005 0 -3.4 -2.84217e-14 71.3851 0.012827 0.0101745 0.75 -1.75 -1.85 -3.18055e-15 3.18055e-15 1.59028e-15 -1.13687e-13 -7.15 -1 65.8252 11.9232 -13.4448 0 -3 1.42109e-14 60.6206 -0.00553647 0.0169375 0 -2.35 -1.42109e-14 42.6743 0.008082 0.0208956 8 -1.42109e-14 -1.13687e-13 10.9019 -20.0935 35.7128 0 -45 -1 -0.307374 11.7508 -6.50872 0 -41 -2 1.04002 7.7697 -10.6429 -1.13687e-13 -7.5 12.5 8.81688e-23 -7.94154e-07 6.36111e-15 0 1.77636e-15 4 1.91101 -3.69701 12.6385 -8 -1.42109e-14 0 -15.8464 -4.4019 -18.808 0 -45 -1 -0.0290246 30.289 0.134275 -2.84217e-14 -41 -2 8.84816 1.12931 13.242 8.52651e-14 -7.5 12.5 -1.09005e-15 -22.8487 -6.90274e-15 0 0 4 -6.35745 23.0758 18.4103 
